<svg width="24" height="16" viewBox="0 0 24 16" fill="none" xmlns="http://www.w3.org/2000/svg">
<path d="M4 0.799999H8.8C9.64869 0.799999 10.4626 1.13714 11.0627 1.73726C11.6629 2.33737 12 3.15131 12 4V15.2C12 14.5635 11.7471 13.953 11.2971 13.5029C10.847 13.0529 10.2365 12.8 9.6 12.8H4V0.799999Z" stroke="black" stroke-width="1.6" stroke-linecap="round" stroke-linejoin="round"/>
<path d="M20 0.800194H15.2C14.3513 0.800194 13.5374 1.13734 12.9373 1.73745C12.3371 2.33757 12 3.1515 12 4.00019V15.2002C12 14.5637 12.2529 13.9532 12.7029 13.5031C13.153 13.053 13.7635 12.8002 14.4 12.8002H20V0.800194Z" stroke="black" stroke-width="1.6" stroke-linecap="round" stroke-linejoin="round"/>
</svg>
