<svg width="23" height="23" viewBox="0 0 23 23" fill="none" xmlns="http://www.w3.org/2000/svg">
<path d="M22.06 11.75C22.06 10.97 21.99 10.22 21.86 9.5H11.5V13.76H17.42C17.16 15.13 16.38 16.29 15.21 17.07V19.84H18.78C20.86 17.92 22.06 15.1 22.06 11.75Z" fill="#4285F4"/>
<path d="M11.4997 22.5C14.4697 22.5 16.9597 21.52 18.7797 19.84L15.2097 17.07C14.2297 17.73 12.9797 18.13 11.4997 18.13C8.63969 18.13 6.20969 16.2 5.33969 13.6H1.67969V16.44C3.48969 20.03 7.19969 22.5 11.4997 22.5Z" fill="#34A853"/>
<path d="M5.34 13.59C5.12 12.93 4.99 12.23 4.99 11.5C4.99 10.77 5.12 10.07 5.34 9.41001V6.57001H1.68C0.93 8.05001 0.5 9.72001 0.5 11.5C0.5 13.28 0.93 14.95 1.68 16.43L4.53 14.21L5.34 13.59Z" fill="#FBBC05"/>
<path d="M11.4997 4.88C13.1197 4.88 14.5597 5.44 15.7097 6.52L18.8597 3.37C16.9497 1.59 14.4697 0.5 11.4997 0.5C7.19969 0.5 3.48969 2.97 1.67969 6.57L5.33969 9.41C6.20969 6.81 8.63969 4.88 11.4997 4.88Z" fill="#EA4335"/>
</svg>
