<svg width="24" height="18" viewBox="0 0 24 18" fill="none" xmlns="http://www.w3.org/2000/svg">
<path d="M12 11.25C13.2426 11.25 14.25 10.2426 14.25 9C14.25 7.75736 13.2426 6.75 12 6.75C10.7574 6.75 9.75 7.75736 9.75 9C9.75 10.2426 10.7574 11.25 12 11.25Z" stroke="black" stroke-width="1.5" stroke-linecap="round" stroke-linejoin="round"/>
<path d="M17.55 11.25C17.4502 11.4762 17.4204 11.7271 17.4645 11.9704C17.5086 12.2137 17.6246 12.4382 17.7975 12.615L17.8425 12.66C17.982 12.7993 18.0926 12.9647 18.1681 13.1468C18.2436 13.3289 18.2824 13.5241 18.2824 13.7213C18.2824 13.9184 18.2436 14.1136 18.1681 14.2957C18.0926 14.4778 17.982 14.6432 17.8425 14.7825C17.7032 14.922 17.5378 15.0326 17.3557 15.1081C17.1736 15.1836 16.9784 15.2224 16.7812 15.2224C16.5841 15.2224 16.3889 15.1836 16.2068 15.1081C16.0247 15.0326 15.8593 14.922 15.72 14.7825L15.675 14.7375C15.4982 14.5646 15.2737 14.4486 15.0304 14.4045C14.7871 14.3604 14.5362 14.3902 14.31 14.49C14.0882 14.5851 13.899 14.7429 13.7657 14.9442C13.6325 15.1454 13.561 15.3812 13.56 15.6225V15.75C13.56 16.1478 13.402 16.5294 13.1207 16.8107C12.8394 17.092 12.4578 17.25 12.06 17.25C11.6622 17.25 11.2806 17.092 10.9993 16.8107C10.718 16.5294 10.56 16.1478 10.56 15.75V15.6825C10.5542 15.4343 10.4738 15.1935 10.3294 14.9915C10.1849 14.7896 9.98305 14.6357 9.75 14.55C9.52379 14.4502 9.27286 14.4204 9.02956 14.4645C8.78626 14.5086 8.56176 14.6246 8.385 14.7975L8.34 14.8425C8.20069 14.982 8.03526 15.0926 7.85316 15.1681C7.67106 15.2436 7.47587 15.2824 7.27875 15.2824C7.08163 15.2824 6.88644 15.2436 6.70434 15.1681C6.52224 15.0926 6.35681 14.982 6.2175 14.8425C6.07804 14.7032 5.9674 14.5378 5.89191 14.3557C5.81642 14.1736 5.77757 13.9784 5.77757 13.7812C5.77757 13.5841 5.81642 13.3889 5.89191 13.2068C5.9674 13.0247 6.07804 12.8593 6.2175 12.72L6.2625 12.675C6.4354 12.4982 6.55139 12.2737 6.5955 12.0304C6.63962 11.7871 6.60984 11.5362 6.51 11.31C6.41493 11.0882 6.25707 10.899 6.05585 10.7657C5.85463 10.6325 5.61884 10.561 5.3775 10.56H5.25C4.85218 10.56 4.47064 10.402 4.18934 10.1207C3.90804 9.83936 3.75 9.45782 3.75 9.06C3.75 8.66218 3.90804 8.28064 4.18934 7.99934C4.47064 7.71804 4.85218 7.56 5.25 7.56H5.3175C5.56575 7.55419 5.8065 7.47384 6.00847 7.32938C6.21045 7.18493 6.36429 6.98305 6.45 6.75C6.54984 6.52379 6.57962 6.27286 6.5355 6.02956C6.49139 5.78626 6.3754 5.56176 6.2025 5.385L6.1575 5.34C6.01804 5.20069 5.9074 5.03526 5.83191 4.85316C5.75642 4.67106 5.71757 4.47587 5.71757 4.27875C5.71757 4.08163 5.75642 3.88644 5.83191 3.70434C5.9074 3.52224 6.01804 3.35681 6.1575 3.2175C6.29681 3.07804 6.46224 2.9674 6.64434 2.89191C6.82644 2.81642 7.02163 2.77757 7.21875 2.77757C7.41587 2.77757 7.61106 2.81642 7.79316 2.89191C7.97526 2.9674 8.14069 3.07804 8.28 3.2175L8.325 3.2625C8.50176 3.4354 8.72626 3.55139 8.96956 3.5955C9.21285 3.63962 9.46379 3.60984 9.69 3.51H9.75C9.97183 3.41493 10.161 3.25707 10.2943 3.05585C10.4275 2.85463 10.499 2.61884 10.5 2.3775V2.25C10.5 1.85218 10.658 1.47064 10.9393 1.18934C11.2206 0.908035 11.6022 0.75 12 0.75C12.3978 0.75 12.7794 0.908035 13.0607 1.18934C13.342 1.47064 13.5 1.85218 13.5 2.25V2.3175C13.501 2.55884 13.5725 2.79463 13.7057 2.99585C13.839 3.19707 14.0282 3.35493 14.25 3.45C14.4762 3.54984 14.7271 3.57962 14.9704 3.5355C15.2137 3.49139 15.4382 3.3754 15.615 3.2025L15.66 3.1575C15.7993 3.01804 15.9647 2.9074 16.1468 2.83191C16.3289 2.75642 16.5241 2.71757 16.7213 2.71757C16.9184 2.71757 17.1136 2.75642 17.2957 2.83191C17.4778 2.9074 17.6432 3.01804 17.7825 3.1575C17.922 3.29681 18.0326 3.46224 18.1081 3.64434C18.1836 3.82644 18.2224 4.02163 18.2224 4.21875C18.2224 4.41587 18.1836 4.61106 18.1081 4.79316C18.0326 4.97526 17.922 5.14069 17.7825 5.28L17.7375 5.325C17.5646 5.50176 17.4486 5.72626 17.4045 5.96956C17.3604 6.21285 17.3902 6.46379 17.49 6.69V6.75C17.5851 6.97183 17.7429 7.16101 17.9442 7.29427C18.1454 7.42753 18.3812 7.49904 18.6225 7.5H18.75C19.1478 7.5 19.5294 7.65804 19.8107 7.93934C20.092 8.22064 20.25 8.60218 20.25 9C20.25 9.39782 20.092 9.77936 19.8107 10.0607C19.5294 10.342 19.1478 10.5 18.75 10.5H18.6825C18.4412 10.501 18.2054 10.5725 18.0042 10.7057C17.8029 10.839 17.6451 11.0282 17.55 11.25Z" stroke="black" stroke-width="1.5" stroke-linecap="round" stroke-linejoin="round"/>
</svg>
